<?xml version="1.0" encoding="UTF-8" standalone="no"?>
<svg viewBox="0 0 1878 840"
     preserveAspectRatio="xMidYMid meet"
     version="1.1"
     baseProfile="full"
     xmlns="http://www.w3.org/2000/svg"
     xmlns:xlink="http://www.w3.org/1999/xlink"
     xmlns:ev="http://www.w3.org/2001/xml-events"
     xml:space="preserve">
<title>design1_imp</title>
<desc>Nlview schematic (SVG)</desc>
<clipPath id="clippingbbox">
<rect x="0" y="0" width="1878" height="840" />
</clipPath>
<g stroke="#102235"
   stroke-width="1"
   stroke-linecap="butt"
   stroke-linejoin="miter"
   stroke-miterlimit="4"
   stroke-dasharray="none"
   stroke-dashoffset="0"
   fill="none"
   font-family="Helvetica"
   font-style="normal"
   font-size="12"
   writing-mode="lr-tb"
   cursor="crosshair"
   clip-path="url(#clippingbbox)">
<path d="M0 0h1878v841h-1878z" stroke="none" fill="white" />
<path d="M1131 582h326l3 1l2 1l1 2l1 3v222l-1 3l-1 2l-2 1l-3 1h-326l-3 -1l-2 -1l-1 -2l-1 -3v-222l1 -3l1 -2l2 -1z" stroke="none" fill="#aac4f7" />
<text x="1294" y="580" fill="black" stroke-width="0" text-anchor="middle">CAM_Subsystem</text>
<g stroke="#41619f" stroke-width="3">
<path d="M1135 587v12" />
<path d="M1129 593h12" />
</g>
<g stroke="#41619f">
<path d="M1127 585h16v16h-16z" />
<path d="M1464 601h10v18h-10z" stroke="none" fill="#edf6fe" />
</g>
<g stroke="#41619f" stroke-width="3">
<path d="M1454 605v10" />
<path d="M1449 610h10" />
</g>
<g stroke="#41619f">
<path d="M1447 603h14v14h-14z" />
<text x="1447" y="610" fill="black" stroke-width="0" font-size="10" text-anchor="end" dy="3.25">GPIO_rsvd</text>
<path d="M1464 621h10v18h-10z" stroke="none" fill="#edf6fe" />
</g>
<g stroke="#41619f" stroke-width="3">
<path d="M1454 625v10" />
<path d="M1449 630h10" />
</g>
<g stroke="#41619f">
<path d="M1447 623h14v14h-14z" />
<text x="1447" y="630" fill="black" stroke-width="0" font-size="10" text-anchor="end" dy="3.25">GPIO_sensor</text>
<path d="M1464 641h10v18h-10z" stroke="none" fill="#edf6fe" />
</g>
<g stroke="#41619f" stroke-width="3">
<path d="M1454 645v10" />
<path d="M1449 650h10" />
</g>
<g stroke="#41619f">
<path d="M1447 643h14v14h-14z" />
<text x="1447" y="650" fill="black" stroke-width="0" font-size="10" text-anchor="end" dy="3.25">IIC_sensor</text>
<path d="M1464 661h10v18h-10z" stroke="none" fill="#edf6fe" />
</g>
<g stroke="#41619f" stroke-width="3">
<path d="M1454 665v10" />
<path d="M1449 670h10" />
</g>
<g stroke="#41619f">
<path d="M1447 663h14v14h-14z" />
<text x="1447" y="670" fill="black" stroke-width="0" font-size="10" text-anchor="end" dy="3.25">ddr4_sdram_c1_062</text>
<path d="M1114 641h10v18h-10z" stroke="none" fill="#edf6fe" />
</g>
<g stroke="#41619f" stroke-width="3">
<path d="M1133 645v10" />
<path d="M1128 650h10" />
</g>
<g stroke="#41619f">
<path d="M1126 643h14v14h-14z" />
<text x="1141" y="650" fill="black" stroke-width="0" font-size="10" dy="3.25">default_250mhz_clk1_0</text>
<path d="M1464 681h10v18h-10z" stroke="none" fill="#edf6fe" />
</g>
<g stroke="#41619f" stroke-width="3">
<path d="M1454 685v10" />
<path d="M1449 690h10" />
</g>
<g stroke="#41619f">
<path d="M1447 683h14v14h-14z" />
<text x="1447" y="690" fill="black" stroke-width="0" font-size="10" text-anchor="end" dy="3.25">led_8bits</text>
<path d="M1114 661h10v18h-10z" stroke="none" fill="#edf6fe" />
</g>
<g stroke="#41619f" stroke-width="3">
<path d="M1133 665v10" />
<path d="M1128 670h10" />
</g>
<g stroke="#41619f">
<path d="M1126 663h14v14h-14z" />
<text x="1141" y="670" fill="black" stroke-width="0" font-size="10" dy="3.25">mipi_phy_if_0</text>
<path d="M1464 701h10v18h-10z" stroke="none" fill="#edf6fe" />
</g>
<g stroke="#41619f" stroke-width="3">
<path d="M1454 705v10" />
<path d="M1449 710h10" />
</g>
<g stroke="#41619f">
<path d="M1447 703h14v14h-14z" />
<text x="1447" y="710" fill="black" stroke-width="0" font-size="10" text-anchor="end" dy="3.25">rs232_uart</text>
<path d="M1114 681h10v18h-10z" stroke="none" fill="#edf6fe" />
</g>
<g stroke="#41619f" stroke-width="3">
<path d="M1133 685v10" />
<path d="M1128 690h10" />
</g>
<g stroke="#41619f">
<path d="M1126 683h14v14h-14z" />
<text x="1141" y="690" fill="black" stroke-width="0" font-size="10" dy="3.25">S04_AXI</text>
<path d="M1464 721h10v18h-10z" stroke="none" fill="#edf6fe" />
</g>
<g stroke="#41619f" stroke-width="3">
<path d="M1454 725v10" />
<path d="M1449 730h10" />
</g>
<g stroke="#41619f">
<path d="M1447 723h14v14h-14z" />
<text x="1447" y="730" fill="black" stroke-width="0" font-size="10" text-anchor="end" dy="3.25">M10_AXI</text>
</g>
<g stroke="black" stroke-width="3">
<path d="M1114 710h10" />
<text x="1126" y="710" fill="black" stroke-width="0" font-size="10" dy="3.25">bg0_pin0_nc_0</text>
<path d="M1114 730h10" />
<text x="1126" y="730" fill="black" stroke-width="0" font-size="10" dy="3.25">bg2_pin0_nc_0</text>
</g>
<g stroke="black" stroke-width="5">
<path d="M1474 750h-10" />
<text x="1462" y="750" fill="black" stroke-width="0" font-size="10" text-anchor="end" dy="3.25">peripheral_aresetn[0:0]</text>
</g>
<g stroke="black" stroke-width="3">
<path d="M1114 750h10" />
<text x="1126" y="750" fill="black" stroke-width="0" font-size="10" dy="3.25">reset</text>
<path d="M1474 770h-10" />
<text x="1462" y="770" fill="black" stroke-width="0" font-size="10" text-anchor="end" dy="3.25">slowest_sync_clk1</text>
<path d="M1474 790h-10" />
<text x="1462" y="790" fill="black" stroke-width="0" font-size="10" text-anchor="end" dy="3.25">clk_out2</text>
</g>
<g stroke="#41619f">
<path d="M1131 582h326" />
<path d="M1457,582 A6.83537,6.83537 1.61957 0,1 1464,589" />
<path d="M1464 589v222" />
<path d="M1464,811 A6.83537,6.83537 1.61957 0,1 1457,818" />
<path d="M1457 818h-326" />
<path d="M1131,818 A6.83537,6.83537 1.61957 0,1 1124,811" />
<path d="M1124 811v-222" />
<path d="M1124,589 A6.83537,6.83537 1.61957 0,1 1131,582" />
<path d="M1584 610v-7h14l7 7l-7 7h-14z" stroke="none" fill="#ddd4d0" />
</g>
<g stroke="#2a5e6f" stroke-width="3">
<path d="M1584 610v-7h14l7 7l-7 7h-14z" />
<text x="1609" y="610" fill="black" stroke-width="0" dy="3.85">GPIO_rsvd</text>
<path d="M1584 630v-7h14l7 7l-7 7h-14z" stroke="none" fill="#ddd4d0" />
<path d="M1584 630v-7h14l7 7l-7 7h-14z" />
<text x="1609" y="630" fill="black" stroke-width="0" dy="3.85">GPIO_sensor</text>
<path d="M1584 650v-7h14l7 7l-7 7h-14z" stroke="none" fill="#ddd4d0" />
<path d="M1584 650v-7h14l7 7l-7 7h-14z" />
<text x="1609" y="650" fill="black" stroke-width="0" dy="3.85">IIC_sensor</text>
<path d="M691 292h266l3 1l2 1l1 2l1 3v102l-1 3l-1 2l-2 1l-3 1h-266l-3 -1l-2 -1l-1 -2l-1 -3v-102l1 -3l1 -2l2 -1z" stroke="none" fill="#aac4f7" />
<text x="824" y="290" fill="black" stroke-width="0" text-anchor="middle">Resizer_BD</text>
</g>
<g stroke="#41619f" stroke-width="3">
<path d="M695 297v12" />
<path d="M689 303h12" />
</g>
<g stroke="#41619f">
<path d="M687 295h16v16h-16z" />
<path d="M964 331h10v18h-10z" stroke="none" fill="#edf6fe" />
</g>
<g stroke="#41619f" stroke-width="3">
<path d="M954 335v10" />
<path d="M949 340h10" />
</g>
<g stroke="#41619f">
<path d="M947 333h14v14h-14z" />
<text x="947" y="340" fill="black" stroke-width="0" font-size="10" text-anchor="end" dy="3.25">M_AXI_S2MM</text>
<path d="M674 311h10v18h-10z" stroke="none" fill="#edf6fe" />
</g>
<g stroke="#41619f" stroke-width="3">
<path d="M693 315v10" />
<path d="M688 320h10" />
</g>
<g stroke="#41619f">
<path d="M686 313h14v14h-14z" />
<text x="701" y="320" fill="black" stroke-width="0" font-size="10" dy="3.25">S_AXI_LITE</text>
<path d="M674 331h10v18h-10z" stroke="none" fill="#edf6fe" />
</g>
<g stroke="#41619f" stroke-width="3">
<path d="M693 335v10" />
<path d="M688 340h10" />
</g>
<g stroke="#41619f">
<path d="M686 333h14v14h-14z" />
<text x="701" y="340" fill="black" stroke-width="0" font-size="10" dy="3.25">s_axi_cfg_port</text>
<path d="M964 351h10v18h-10z" stroke="none" fill="#edf6fe" />
</g>
<g stroke="#41619f" stroke-width="3">
<path d="M954 355v10" />
<path d="M949 360h10" />
</g>
<g stroke="#41619f">
<path d="M947 353h14v14h-14z" />
<text x="947" y="360" fill="black" stroke-width="0" font-size="10" text-anchor="end" dy="3.25">m_axi_data_mem</text>
</g>
<g stroke="black" stroke-width="3">
<path d="M674 360h10" />
<text x="686" y="360" fill="black" stroke-width="0" font-size="10" dy="3.25">axi_resetn</text>
<path d="M674 380h10" />
<text x="686" y="380" fill="black" stroke-width="0" font-size="10" dy="3.25">m_axi_s2mm_aclk</text>
</g>
<g stroke="#41619f">
<path d="M691 292h266" />
<path d="M957,292 A6.83537,6.83537 1.61957 0,1 964,299" />
<path d="M964 299v102" />
<path d="M964,401 A6.83537,6.83537 1.61957 0,1 957,408" />
<path d="M957 408h-266" />
<path d="M691,408 A6.83537,6.83537 1.61957 0,1 684,401" />
<path d="M684 401v-102" />
<path d="M684,299 A6.83537,6.83537 1.61957 0,1 691,292" />
<path d="M1091 192h406l3 1l2 1l1 2l1 3v202l-1 3l-1 2l-2 1l-3 1h-406l-3 -1l-2 -1l-1 -2l-1 -3v-202l1 -3l1 -2l2 -1z" stroke="none" fill="#edf6fe" />
<text x="1294" y="190" fill="black" stroke-width="0" text-anchor="middle">axi_chip2chip_0</text>
<text x="1294" y="410" fill="#41619f" stroke-width="0" text-anchor="middle" dy="7.7">AXI Chip2Chip Bridge</text>
<path d="M1504 231h10v18h-10z" stroke="none" fill="#edf6fe" />
</g>
<g stroke="#41619f" stroke-width="3">
<path d="M1494 235v10" />
<path d="M1489 240h10" />
</g>
<g stroke="#41619f">
<path d="M1487 233h14v14h-14z" />
<text x="1487" y="240" fill="black" stroke-width="0" font-size="10" text-anchor="end" dy="3.25">m_axi</text>
<path d="M1074 211h10v18h-10z" stroke="none" fill="#edf6fe" />
</g>
<g stroke="#41619f" stroke-width="3">
<path d="M1093 215v10" />
<path d="M1088 220h10" />
</g>
<g stroke="#41619f">
<path d="M1086 213h14v14h-14z" />
<text x="1101" y="220" fill="black" stroke-width="0" font-size="10" dy="3.25">s_axi_lite</text>
</g>
<g stroke="black" stroke-width="3">
<path d="M1074 240h10" />
<text x="1086" y="240" fill="black" stroke-width="0" font-size="10" dy="3.25">m_aclk</text>
<circle cx="1081" cy="260" r="3" />
<path d="M1074 260h4" />
<text x="1086" y="260" fill="black" stroke-width="0" font-size="10" dy="3.25">m_aresetn</text>
</g>
<g stroke="black" stroke-width="5">
<path d="M1074 280h10" />
<text x="1086" y="280" fill="black" stroke-width="0" font-size="10" dy="3.25">axi_c2c_s2m_intr_in[3:0]</text>
<path d="M1514 260h-10" />
<text x="1502" y="260" fill="black" stroke-width="0" font-size="10" text-anchor="end" dy="3.25">axi_c2c_m2s_intr_out[3:0]</text>
</g>
<g stroke="black" stroke-width="3">
<path d="M1074 300h10" />
<text x="1086" y="300" fill="black" stroke-width="0" font-size="10" dy="3.25">idelay_ref_clk</text>
</g>
<g stroke="black" stroke-width="5">
<path d="M1514 280h-10" />
<text x="1502" y="280" fill="black" stroke-width="0" font-size="10" text-anchor="end" dy="3.25">axi_c2c_selio_tx_data_out[14:0]</text>
<path d="M1074 320h10" />
<text x="1086" y="320" fill="black" stroke-width="0" font-size="10" dy="3.25">axi_c2c_selio_rx_data_in[14:0]</text>
</g>
<g stroke="black" stroke-width="3">
<path d="M1514 300h-10" />
<text x="1502" y="300" fill="black" stroke-width="0" font-size="10" text-anchor="end" dy="3.25">axi_c2c_selio_tx_diff_clk_out_p</text>
<path d="M1514 320h-10" />
<text x="1502" y="320" fill="black" stroke-width="0" font-size="10" text-anchor="end" dy="3.25">axi_c2c_selio_tx_diff_clk_out_n</text>
<path d="M1074 340h10" />
<text x="1086" y="340" fill="black" stroke-width="0" font-size="10" dy="3.25">axi_c2c_selio_rx_diff_clk_in_p</text>
<path d="M1074 360h10" />
<text x="1086" y="360" fill="black" stroke-width="0" font-size="10" dy="3.25">axi_c2c_selio_rx_diff_clk_in_n</text>
<path d="M1514 340h-10" />
<text x="1502" y="340" fill="black" stroke-width="0" font-size="10" text-anchor="end" dy="3.25">axi_c2c_link_status_out</text>
<path d="M1514 360h-10" />
<text x="1502" y="360" fill="black" stroke-width="0" font-size="10" text-anchor="end" dy="3.25">axi_c2c_multi_bit_error_out</text>
<path d="M1074 380h10" />
<text x="1086" y="380" fill="black" stroke-width="0" font-size="10" dy="3.25">s_axi_lite_aclk</text>
</g>
<g stroke="#41619f">
<path d="M1091 192h406" />
<path d="M1497,192 A6.83537,6.83537 1.61957 0,1 1504,199" />
<path d="M1504 199v202" />
<path d="M1504,401 A6.83537,6.83537 1.61957 0,1 1497,408" />
<path d="M1497 408h-406" />
<path d="M1091,408 A6.83537,6.83537 1.61957 0,1 1084,401" />
<path d="M1084 401v-202" />
<path d="M1084,199 A6.83537,6.83537 1.61957 0,1 1091,192" />
<path d="M284 510l-7 7h-14v-14h14z" stroke="none" fill="#ddd4d0" />
</g>
<g stroke-width="3">
<path d="M284 510l-7 7h-14v-14h14z" />
<text x="259" y="510" fill="black" stroke-width="0" text-anchor="end" dy="3.85">axi_c2c_selio_rx_data_in_0[14:0]</text>
<path d="M1584 280v-7h14l7 7l-7 7h-14z" stroke="none" fill="#ddd4d0" />
<path d="M1584 280v-7h14l7 7l-7 7h-14z" />
<text x="1609" y="280" fill="black" stroke-width="0" dy="3.85">axi_c2c_selio_tx_data_out_0[14:0]</text>
<path d="M371 192h226l3 1l2 1l1 2l1 3v262l-1 3l-1 2l-2 1l-3 1h-226l-3 -1l-2 -1l-1 -2l-1 -3v-262l1 -3l1 -2l2 -1z" stroke="none" fill="#edf6fe" />
<text x="484" y="190" fill="black" stroke-width="0" text-anchor="middle">axi_interconnect_0</text>
<text x="484" y="470" fill="#41619f" stroke-width="0" text-anchor="middle" dy="7.7">AXI Interconnect</text>
</g>
<g stroke="#41619f" stroke-width="3">
<path d="M375 197v12" />
<path d="M369 203h12" />
</g>
<g stroke="#41619f">
<path d="M367 195h16v16h-16z" />
<path d="M354 211h10v18h-10z" stroke="none" fill="#edf6fe" />
</g>
<g stroke="#41619f" stroke-width="3">
<path d="M373 215v10" />
<path d="M368 220h10" />
</g>
<g stroke="#41619f">
<path d="M366 213h14v14h-14z" />
<text x="381" y="220" fill="black" stroke-width="0" font-size="10" dy="3.25">S00_AXI</text>
<path d="M604 311h10v18h-10z" stroke="none" fill="#edf6fe" />
</g>
<g stroke="#41619f" stroke-width="3">
<path d="M594 315v10" />
<path d="M589 320h10" />
</g>
<g stroke="#41619f">
<path d="M587 313h14v14h-14z" />
<text x="587" y="320" fill="black" stroke-width="0" font-size="10" text-anchor="end" dy="3.25">M00_AXI</text>
<path d="M604 331h10v18h-10z" stroke="none" fill="#edf6fe" />
</g>
<g stroke="#41619f" stroke-width="3">
<path d="M594 335v10" />
<path d="M589 340h10" />
</g>
<g stroke="#41619f">
<path d="M587 333h14v14h-14z" />
<text x="587" y="340" fill="black" stroke-width="0" font-size="10" text-anchor="end" dy="3.25">M01_AXI</text>
<path d="M354 231h10v18h-10z" stroke="none" fill="#edf6fe" />
</g>
<g stroke="#41619f" stroke-width="3">
<path d="M373 235v10" />
<path d="M368 240h10" />
</g>
<g stroke="#41619f">
<path d="M366 233h14v14h-14z" />
<text x="381" y="240" fill="black" stroke-width="0" font-size="10" dy="3.25">S01_AXI</text>
</g>
<g stroke="black" stroke-width="3">
<path d="M354 260h10" />
<text x="366" y="260" fill="black" stroke-width="0" font-size="10" dy="3.25">ACLK</text>
<path d="M354 280h10" />
<text x="366" y="280" fill="black" stroke-width="0" font-size="10" dy="3.25">ARESETN</text>
<path d="M354 300h10" />
<text x="366" y="300" fill="black" stroke-width="0" font-size="10" dy="3.25">S00_ACLK</text>
<path d="M354 320h10" />
<text x="366" y="320" fill="black" stroke-width="0" font-size="10" dy="3.25">S00_ARESETN</text>
<path d="M354 340h10" />
<text x="366" y="340" fill="black" stroke-width="0" font-size="10" dy="3.25">M00_ACLK</text>
<path d="M354 360h10" />
<text x="366" y="360" fill="black" stroke-width="0" font-size="10" dy="3.25">M00_ARESETN</text>
<path d="M354 380h10" />
<text x="366" y="380" fill="black" stroke-width="0" font-size="10" dy="3.25">M01_ACLK</text>
<path d="M354 400h10" />
<text x="366" y="400" fill="black" stroke-width="0" font-size="10" dy="3.25">M01_ARESETN</text>
<path d="M354 420h10" />
<text x="366" y="420" fill="black" stroke-width="0" font-size="10" dy="3.25">S01_ACLK</text>
<path d="M354 440h10" />
<text x="366" y="440" fill="black" stroke-width="0" font-size="10" dy="3.25">S01_ARESETN</text>
</g>
<g stroke="#41619f">
<path d="M371 192h226" />
<path d="M597,192 A6.83537,6.83537 1.61957 0,1 604,199" />
<path d="M604 199v262" />
<path d="M604,461 A6.83537,6.83537 1.61957 0,1 597,468" />
<path d="M597 468h-226" />
<path d="M371,468 A6.83537,6.83537 1.61957 0,1 364,461" />
<path d="M364 461v-262" />
<path d="M364,199 A6.83537,6.83537 1.61957 0,1 371,192" />
<path d="M711 32h226l3 1l2 1l1 2l1 3v82l-1 3l-1 2l-2 1l-3 1h-226l-3 -1l-2 -1l-1 -2l-1 -3v-82l1 -3l1 -2l2 -1z" stroke="none" fill="#edf6fe" />
<text x="824" y="30" fill="black" stroke-width="0" text-anchor="middle">axi_protocol_convert_0</text>
<text x="824" y="130" fill="#41619f" stroke-width="0" text-anchor="middle" dy="7.7">AXI Protocol Converter</text>
<path d="M694 51h10v18h-10z" stroke="none" fill="#edf6fe" />
</g>
<g stroke="#41619f" stroke-width="3">
<path d="M713 55v10" />
<path d="M708 60h10" />
</g>
<g stroke="#41619f">
<path d="M706 53h14v14h-14z" />
<text x="721" y="60" fill="black" stroke-width="0" font-size="10" dy="3.25">S_AXI</text>
<path d="M944 71h10v18h-10z" stroke="none" fill="#edf6fe" />
</g>
<g stroke="#41619f" stroke-width="3">
<path d="M934 75v10" />
<path d="M929 80h10" />
</g>
<g stroke="#41619f">
<path d="M927 73h14v14h-14z" />
<text x="927" y="80" fill="black" stroke-width="0" font-size="10" text-anchor="end" dy="3.25">M_AXI</text>
</g>
<g stroke="black" stroke-width="3">
<path d="M694 80h10" />
<text x="706" y="80" fill="black" stroke-width="0" font-size="10" dy="3.25">aclk</text>
<circle cx="701" cy="100" r="3" />
<path d="M694 100h4" />
<text x="706" y="100" fill="black" stroke-width="0" font-size="10" dy="3.25">aresetn</text>
</g>
<g stroke="#41619f">
<path d="M711 32h226" />
<path d="M937,32 A6.83537,6.83537 1.61957 0,1 944,39" />
<path d="M944 39v82" />
<path d="M944,121 A6.83537,6.83537 1.61957 0,1 937,128" />
<path d="M937 128h-226" />
<path d="M711,128 A6.83537,6.83537 1.61957 0,1 704,121" />
<path d="M704 121v-82" />
<path d="M704,39 A6.83537,6.83537 1.61957 0,1 711,32" />
<path d="M1584 670v-7h14l7 7l-7 7h-14z" stroke="none" fill="#ddd4d0" />
</g>
<g stroke="#2a5e6f" stroke-width="3">
<path d="M1584 670v-7h14l7 7l-7 7h-14z" />
<text x="1609" y="670" fill="black" stroke-width="0" dy="3.85">ddr4_sdram_c1_062</text>
<path d="M284 650l-7 7h-14v-14h14z" stroke="none" fill="#ddd4d0" />
<path d="M284 650l-7 7h-14v-14h14z" />
<text x="259" y="650" fill="black" stroke-width="0" text-anchor="end" dy="3.85">default_250mhz_clk1_0</text>
<path d="M1584 690v-7h14l7 7l-7 7h-14z" stroke="none" fill="#ddd4d0" />
<path d="M1584 690v-7h14l7 7l-7 7h-14z" />
<text x="1609" y="690" fill="black" stroke-width="0" dy="3.85">led_8bits</text>
<path d="M284 670l-7 7h-14v-14h14z" stroke="none" fill="#ddd4d0" />
<path d="M284 670l-7 7h-14v-14h14z" />
<text x="259" y="670" fill="black" stroke-width="0" text-anchor="end" dy="3.85">mipi_phy_if_0</text>
<path d="M284 550l-7 7h-14v-14h14z" stroke="none" fill="#ddd4d0" />
</g>
<g>
<path d="M284 550l-7 7h-14v-14h14z" />
<text x="259" y="550" fill="black" stroke-width="0" text-anchor="end" dy="3.85">axi_c2c_selio_rx_diff_clk_in_n_0</text>
<path d="M284 530l-7 7h-14v-14h14z" stroke="none" fill="#ddd4d0" />
<path d="M284 530l-7 7h-14v-14h14z" />
<text x="259" y="530" fill="black" stroke-width="0" text-anchor="end" dy="3.85">axi_c2c_selio_rx_diff_clk_in_p_0</text>
<path d="M1584 320v-7h14l7 7l-7 7h-14z" stroke="none" fill="#ddd4d0" />
<path d="M1584 320v-7h14l7 7l-7 7h-14z" />
<text x="1609" y="320" fill="black" stroke-width="0" dy="3.85">axi_c2c_selio_tx_diff_clk_out_n_0</text>
<path d="M1584 300v-7h14l7 7l-7 7h-14z" stroke="none" fill="#ddd4d0" />
<path d="M1584 300v-7h14l7 7l-7 7h-14z" />
<text x="1609" y="300" fill="black" stroke-width="0" dy="3.85">axi_c2c_selio_tx_diff_clk_out_p_0</text>
<path d="M284 710l-7 7h-14v-14h14z" stroke="none" fill="#ddd4d0" />
<path d="M284 710l-7 7h-14v-14h14z" />
<text x="259" y="710" fill="black" stroke-width="0" text-anchor="end" dy="3.85">bg0_pin0_nc_0</text>
<path d="M284 730l-7 7h-14v-14h14z" stroke="none" fill="#ddd4d0" />
<path d="M284 730l-7 7h-14v-14h14z" />
<text x="259" y="730" fill="black" stroke-width="0" text-anchor="end" dy="3.85">bg2_pin0_nc_0</text>
<path d="M284 750l-7 7h-14v-14h14z" stroke="none" fill="#ddd4d0" />
<path d="M284 750l-7 7h-14v-14h14z" />
<text x="259" y="750" fill="black" stroke-width="0" text-anchor="end" dy="3.85">reset</text>
<path d="M1584 710v-7h14l7 7l-7 7h-14z" stroke="none" fill="#ddd4d0" />
</g>
<g stroke="#2a5e6f" stroke-width="3">
<path d="M1584 710v-7h14l7 7l-7 7h-14z" />
<text x="1609" y="710" fill="black" stroke-width="0" dy="3.85">rs232_uart</text>
</g>
<g>
<path d="M1074 300h-20v220h510v270h-90" />
</g>
<g stroke="#41619f" stroke-width="4">
<path d="M694 60h-40v110h340v170h-20" />
<path d="M354 240h-40v310h1220v180h-60" />
<path d="M974 360h20v330h120" />
</g>
<g stroke-width="3">
<path d="M1514 280h70" />
</g>
<g>
<path d="M1514 320h70" />
<path d="M1514 300h70" />
</g>
<g stroke="#41619f" stroke-width="4">
<path d="M354 220h-20v-60h1230v80h-50" />
</g>
<g stroke-width="3">
<path d="M284 510h20v10h700v-200h70" />
</g>
<g>
<path d="M284 550h20v-10h710v-180h60" />
<path d="M284 530h740v-190h50" />
</g>
<g stroke="#41619f" stroke-width="4">
<path d="M1474 690h110" />
<path d="M1474 630h110" />
<path d="M1474 610h110" />
<path d="M1474 650h110" />
<path d="M614 320h60" />
<path d="M614 340h60" />
<path d="M954 80h100v140h20" />
<path d="M1474 710h110" />
</g>
<g>
<path d="M284 710h830" />
<path d="M284 730h830" />
</g>
<g stroke="#41619f" stroke-width="4">
<path d="M1474 670h110" />
<path d="M284 650h830" />
</g>
<g>
<path d="M354 260h-30v250h310v-430h60" />
<path d="M634 430h400" />
<path d="M1032 378h5v5h-5z" stroke="none" fill="#102235" />
<path d="M1032 428h5v5h-5z" stroke="none" fill="#102235" />
<path d="M324 300h30" />
<path d="M324 340h30" />
<path d="M324 380h30" />
<path d="M324 420h30" />
<path d="M322 298h5v5h-5z" stroke="none" fill="#102235" />
<path d="M322 338h5v5h-5z" stroke="none" fill="#102235" />
<path d="M322 378h5v5h-5z" stroke="none" fill="#102235" />
<path d="M322 418h5v5h-5z" stroke="none" fill="#102235" />
<path d="M634 380h40" />
<path d="M632 428h5v5h-5z" stroke="none" fill="#102235" />
<path d="M632 378h5v5h-5z" stroke="none" fill="#102235" />
<path d="M1074 240h-40v290h520v240h-80" />
<path d="M1034 380h40" />
</g>
<g stroke="#41619f" stroke-width="4">
<path d="M284 670h830" />
</g>
<g>
<path d="M284 750h830" />
</g>
<g stroke-width="3">
<path d="M354 280h-20v220h310v-400h50" />
<path d="M644 440h400" />
<path d="M1041 437h7v7h-7z" stroke="none" fill="#102235" />
<path d="M334 320h20" />
<path d="M334 360h20" />
<path d="M334 400h20" />
<path d="M334 440h20" />
<path d="M331 317h7v7h-7z" stroke="none" fill="#102235" />
<path d="M331 357h7v7h-7z" stroke="none" fill="#102235" />
<path d="M331 397h7v7h-7z" stroke="none" fill="#102235" />
<path d="M331 437h7v7h-7z" stroke="none" fill="#102235" />
<path d="M644 360h30" />
<path d="M641 437h7v7h-7z" stroke="none" fill="#102235" />
<path d="M641 357h7v7h-7z" stroke="none" fill="#102235" />
<path d="M1074 260h-30v280h500v210h-70" />
</g>
</g>
</svg>
